<svg width="60" height="60" viewBox="0 0 60 60" fill="none" xmlns="http://www.w3.org/2000/svg">
<path d="M45.0001 20.0001V30.5376C44.9952 30.7275 44.9184 30.9085 44.7852 31.044C44.652 31.1795 44.4724 31.2594 44.2826 31.2676C40.767 31.4579 37.4576 32.987 35.034 35.5408C32.6104 38.0946 31.2564 41.4793 31.2501 45.0001C31.246 46.3557 31.4466 47.7043 31.8451 49.0001C31.8849 49.1126 31.8972 49.2331 31.8811 49.3514C31.865 49.4697 31.8209 49.5824 31.7524 49.6802C31.6839 49.778 31.5931 49.8581 31.4875 49.9137C31.3818 49.9693 31.2644 49.9989 31.1451 50.0001H15.0001C13.9813 50.1454 12.9427 50.0516 11.9665 49.7261C10.9902 49.4006 10.1031 48.8523 9.37548 48.1247C8.64781 47.397 8.09952 46.5099 7.77401 45.5337C7.4485 44.5574 7.35471 43.5188 7.50006 42.5001V12.5001C7.35471 11.4813 7.4485 10.4427 7.77401 9.46645C8.09952 8.49021 8.64781 7.60315 9.37548 6.87548C10.1031 6.14781 10.9902 5.59952 11.9665 5.27401C12.9427 4.9485 13.9813 4.85471 15.0001 5.00006H30.0001V12.5001C30.0001 14.4892 30.7902 16.3968 32.1968 17.8034C33.6033 19.2099 35.5109 20.0001 37.5001 20.0001H45.0001Z" fill="#CED8F9"/>
<path d="M37.5001 20H45.0001L30.0001 5V12.5C29.8547 13.5188 29.9485 14.5574 30.274 15.5336C30.5995 16.5099 31.1478 17.3969 31.8755 18.1246C32.6031 18.8523 33.4902 19.4005 34.4665 19.7261C35.4427 20.0516 36.4813 20.1454 37.5001 20Z" fill="#0B3EE3"/>
<path d="M19.375 27.5C19.375 27.8708 19.265 28.2334 19.059 28.5417C18.853 28.85 18.5601 29.0904 18.2175 29.2323C17.8749 29.3742 17.4979 29.4113 17.1342 29.339C16.7705 29.2666 16.4364 29.088 16.1742 28.8258C15.912 28.5636 15.7334 28.2295 15.661 27.8658C15.5887 27.5021 15.6258 27.1251 15.7677 26.7825C15.9096 26.4399 16.15 26.147 16.4583 25.941C16.7666 25.735 17.1292 25.625 17.5 25.625C17.9973 25.625 18.4742 25.8225 18.8258 26.1742C19.1775 26.5258 19.375 27.0027 19.375 27.5ZM17.5 35.625C17.1292 35.625 16.7666 35.735 16.4583 35.941C16.15 36.147 15.9096 36.4399 15.7677 36.7825C15.6258 37.1251 15.5887 37.5021 15.661 37.8658C15.7334 38.2295 15.912 38.5636 16.1742 38.8258C16.4364 39.088 16.7705 39.2666 17.1342 39.339C17.4979 39.4113 17.8749 39.3742 18.2175 39.2323C18.5601 39.0904 18.853 38.85 19.059 38.5417C19.265 38.2334 19.375 37.8708 19.375 37.5C19.375 37.0027 19.1775 36.5258 18.8258 36.1742C18.4742 35.8225 17.9973 35.625 17.5 35.625ZM36.875 27.5C36.875 27.0027 36.6775 26.5258 36.3258 26.1742C35.9742 25.8225 35.4973 25.625 35 25.625H23.75C23.2527 25.625 22.7758 25.8225 22.4242 26.1742C22.0725 26.5258 21.875 27.0027 21.875 27.5C21.875 27.9973 22.0725 28.4742 22.4242 28.8258C22.7758 29.1775 23.2527 29.375 23.75 29.375H35C35.4973 29.375 35.9742 29.1775 36.3258 28.8258C36.6775 28.4742 36.875 27.9973 36.875 27.5ZM29.375 37.5C29.375 37.0027 29.1775 36.5258 28.8258 36.1742C28.4742 35.8225 27.9973 35.625 27.5 35.625H23.75C23.2527 35.625 22.7758 35.8225 22.4242 36.1742C22.0725 36.5258 21.875 37.0027 21.875 37.5C21.875 37.9973 22.0725 38.4742 22.4242 38.8258C22.7758 39.1775 23.2527 39.375 23.75 39.375H27.5C27.9973 39.375 28.4742 39.1775 28.8258 38.8258C29.1775 38.4742 29.375 37.9973 29.375 37.5Z" fill="#0B3EE3"/>
<path d="M45 35C43.0222 35 41.0888 35.5865 39.4443 36.6853C37.7998 37.7841 36.5181 39.3459 35.7612 41.1732C35.0043 43.0004 34.8063 45.0111 35.1922 46.9509C35.578 48.8907 36.5304 50.6725 37.9289 52.0711C39.3275 53.4696 41.1093 54.422 43.0491 54.8079C44.9889 55.1937 46.9996 54.9957 48.8268 54.2388C50.6541 53.4819 52.2159 52.2002 53.3147 50.5557C54.4135 48.9112 55 46.9778 55 45C55 42.3478 53.9464 39.8043 52.0711 37.9289C50.1957 36.0536 47.6522 35 45 35ZM49 43.8L44.8325 47.9675C44.7164 48.0839 44.5785 48.1763 44.4266 48.2393C44.2747 48.3023 44.1119 48.3347 43.9475 48.3347C43.7831 48.3347 43.6203 48.3023 43.4684 48.2393C43.3166 48.1763 43.1786 48.0839 43.0625 47.9675L40.98 45.885C40.8638 45.7688 40.7716 45.6308 40.7087 45.479C40.6458 45.3271 40.6134 45.1644 40.6134 45C40.6134 44.8356 40.6458 44.6729 40.7087 44.521C40.7716 44.3692 40.8638 44.2312 40.98 44.115C41.0962 43.9988 41.2342 43.9066 41.386 43.8437C41.5379 43.7808 41.7006 43.7484 41.865 43.7484C42.0294 43.7484 42.1921 43.7808 42.344 43.8437C42.4958 43.9066 42.6338 43.9988 42.75 44.115L43.9475 45.315L47.25 42.0325C47.4844 41.7978 47.8024 41.6658 48.1341 41.6656C48.4658 41.6653 48.784 41.7969 49.0188 42.0312C49.2535 42.2656 49.3855 42.5837 49.3857 42.9154C49.3859 43.2471 49.2544 43.5653 49.02 43.8H49Z" fill="#0B3EE3"/>
</svg>

